<svg width="33" height="57" viewBox="0 0 33 57" fill="none" xmlns="http://www.w3.org/2000/svg">
<path d="M26.6538 0H6.34615C2.84308 0 0 2.90182 0 6.47727V50.5227C0 54.0982 2.84308 57 6.34615 57H26.6538C30.1569 57 33 54.0982 33 50.5227V6.47727C33 2.90182 30.1569 0 26.6538 0ZM16.5 54.4091C14.3931 54.4091 12.6923 52.6732 12.6923 50.5227C12.6923 48.3723 14.3931 46.6364 16.5 46.6364C18.6069 46.6364 20.3077 48.3723 20.3077 50.5227C20.3077 52.6732 18.6069 54.4091 16.5 54.4091ZM27.9231 44.0455H5.07692V7.77273H27.9231V44.0455Z" fill="#C8C8C8"/>
</svg>
